<svg width="328" height="125" viewBox="0 10 328 82" fill="none" xmlns="http://www.w3.org/2000/svg">
<path d="M171.817 82.7311C174.797 82.7311 177.27 81.8088 179.237 79.9642C181.234 78.1196 182.232 75.9087 182.232 73.3317C182.232 70.5919 181.649 67.9877 180.481 65.5192C179.344 63.0507 177.931 60.6228 176.241 58.2357C174.582 55.8214 172.907 53.3936 171.217 50.9522C169.528 48.5107 168.099 45.9744 166.931 43.3431C165.794 40.6847 165.226 37.8499 165.226 34.8389C165.226 31.5023 165.779 28.1928 166.885 24.9105C167.069 24.2866 167.469 23.7983 168.083 23.4456C168.698 23.0659 169.359 22.876 170.065 22.876C170.803 22.876 171.509 23.1337 172.185 23.6491C172.861 24.1374 173.199 24.6935 173.199 25.3174C173.199 25.8328 173.153 26.2397 173.061 26.5381C172.17 29.5492 171.724 32.4382 171.724 35.2051C171.724 38.406 172.293 41.3222 173.43 43.9535C174.597 46.5847 176.026 49.0804 177.716 51.4404C179.406 53.7733 181.096 56.0791 182.786 58.3578C184.475 60.6093 185.889 62.9422 187.026 65.3564C188.193 67.7979 188.777 70.4291 188.777 73.2503C188.777 75.963 188.04 78.4722 186.565 80.778C185.09 83.1109 183.077 84.9826 180.527 86.3932C178.008 87.8038 175.15 88.5091 171.955 88.5091C169.067 88.5091 166.409 87.9123 163.982 86.7188C161.585 85.5252 159.665 83.8976 158.221 81.8359C156.776 79.7743 156.054 77.455 156.054 74.8779C156.054 72.111 156.746 69.7645 158.128 67.8385C159.511 65.9397 161.278 64.407 163.429 63.2406C163.951 62.9422 164.535 62.793 165.18 62.793C166.071 62.793 166.824 63.0914 167.438 63.6882C168.083 64.2578 168.406 64.9767 168.406 65.8447C168.406 66.767 167.899 67.4995 166.885 68.042C165.656 68.693 164.611 69.6289 163.751 70.8496C162.922 72.0703 162.507 73.3995 162.507 74.8372C162.507 77.0616 163.413 78.9334 165.226 80.4525C167.039 81.9716 169.236 82.7311 171.817 82.7311Z" fill="url(#paint0_linear_2_7)"/>
<path d="M103.514 62.9557C103.514 63.5525 103.207 64.1493 102.592 64.7461C101.978 65.3429 101.332 65.6413 100.656 65.6413C100.073 65.6413 99.5504 65.5735 99.0895 65.4378C96.2013 64.4341 93.5435 62.9693 91.1162 61.0433C88.6889 59.0902 86.7532 56.7437 85.3091 54.0039C83.865 51.237 83.143 48.131 83.143 44.6859C83.143 40.4812 84.2798 36.7377 86.5535 33.4554C88.8579 30.1731 91.9458 27.5825 95.8172 25.6836C99.7194 23.7847 104.052 22.8353 108.814 22.8353C110.627 22.8353 112.44 23.0116 114.252 23.3643C116.096 23.6898 117.878 24.2188 119.599 24.9512H119.645C121.458 24.2188 123.316 23.6898 125.221 23.3643C127.126 23.0116 129.016 22.8353 130.89 22.8353C135.622 22.8353 139.924 23.7983 143.795 25.7243C147.666 27.6232 150.739 30.2273 153.013 33.5368C155.317 36.8191 156.469 40.549 156.469 44.7266C156.469 48.1445 155.763 51.2234 154.349 53.9632C152.967 56.6759 151.108 58.9952 148.772 60.9212C146.437 62.8201 143.856 64.2985 141.03 65.3564C140.63 65.5192 140.108 65.6006 139.463 65.6006C138.787 65.6006 138.126 65.3022 137.481 64.7054C136.866 64.1357 136.559 63.5525 136.559 62.9557C136.559 62.3047 136.759 61.7215 137.158 61.2061C137.558 60.6635 138.019 60.2973 138.541 60.1074C140.569 59.375 142.458 58.2899 144.21 56.8522C145.961 55.3874 147.374 53.6648 148.45 51.6846C149.525 49.6772 150.063 47.4935 150.063 45.1335C150.063 42.0139 149.233 39.1927 147.574 36.6699C145.915 34.1471 143.657 32.1533 140.799 30.6885C137.972 29.1965 134.746 28.4505 131.121 28.4505C129.738 28.4505 128.202 28.5997 126.512 28.8981C129.523 31.231 131.904 33.9708 133.656 37.1175C135.438 40.2642 136.329 43.9399 136.329 48.1445C136.329 51.1013 135.668 53.8954 134.347 56.5267C133.026 59.1309 131.121 61.2467 128.632 62.8743C126.174 64.502 123.224 65.3158 119.783 65.3158C116.342 65.3158 113.377 64.502 110.888 62.8743C108.399 61.2196 106.479 59.0902 105.127 56.486C103.775 53.8547 103.099 51.0607 103.099 48.1038C103.099 43.9535 103.99 40.2913 105.772 37.1175C107.585 33.9437 109.936 31.2175 112.824 28.9388C111.195 28.6404 109.674 28.4912 108.261 28.4912C104.758 28.4912 101.594 29.2236 98.7669 30.6885C95.9401 32.1262 93.6972 34.0929 92.038 36.5885C90.3788 39.0842 89.5492 41.8918 89.5492 45.0114C89.5492 47.3714 90.1023 49.5687 91.2084 51.6032C92.3145 53.6377 93.774 55.3874 95.5868 56.8522C97.3996 58.3171 99.3506 59.4021 101.44 60.1074C101.993 60.2973 102.469 60.65 102.869 61.1654C103.299 61.6808 103.514 62.2776 103.514 62.9557ZM119.691 31.4616C117.048 32.9536 114.698 35.1101 112.639 37.9313C110.581 40.7254 109.551 44.1026 109.551 48.0632C109.551 49.962 109.936 51.8066 110.704 53.597C111.503 55.3874 112.655 56.8658 114.16 58.0322C115.697 59.1716 117.555 59.7412 119.737 59.7412C123.24 59.7141 125.805 58.6561 127.434 56.5674C129.093 54.4515 129.922 51.6439 129.922 48.1445C129.922 44.1569 128.878 40.7525 126.788 37.9313C124.73 35.1101 122.364 32.9536 119.691 31.4616Z" fill="url(#paint1_linear_2_7)"/>
<path d="M66.7539 64.5833V25.9167H72.9458V64.5833H66.7539ZM66.7539 18.7167V13.25H72.9458V18.7167H66.7539Z" fill="url(#paint2_linear_2_7)"/>
<path d="M4.22861 64.5833V16.5833H12.6103L52.48 58.45V16.5833H58.5964V64.5833H50.2147L10.345 22.7167V64.5833H4.22861Z" fill="url(#paint3_linear_2_7)"/>
<defs>
<linearGradient id="paint0_linear_2_7" x1="2.17347e-06" y1="62.5" x2="328" y2="62.5" gradientUnits="userSpaceOnUse">
<stop stop-color="#F6E05E"/>
<stop offset="0.2" stop-color="#ED64A6"/>
<stop offset="0.4" stop-color="#9F7AEA"/>
<stop offset="0.6" stop-color="#4299E1"/>
<stop offset="0.8" stop-color="#4FD1C5"/>
</linearGradient>
<linearGradient id="paint1_linear_2_7" x1="6.21776e-06" y1="62.5" x2="328" y2="62.5" gradientUnits="userSpaceOnUse">
<stop stop-color="#F6E05E"/>
<stop offset="0.2" stop-color="#ED64A6"/>
<stop offset="0.4" stop-color="#9F7AEA"/>
<stop offset="0.6" stop-color="#4299E1"/>
<stop offset="0.8" stop-color="#4FD1C5"/>
</linearGradient>
<linearGradient id="paint2_linear_2_7" x1="-1.15888e-05" y1="62.5" x2="328" y2="62.5" gradientUnits="userSpaceOnUse">
<stop stop-color="#F6E05E"/>
<stop offset="0.2" stop-color="#ED64A6"/>
<stop offset="0.4" stop-color="#9F7AEA"/>
<stop offset="0.6" stop-color="#4299E1"/>
<stop offset="0.8" stop-color="#4FD1C5"/>
</linearGradient>
<linearGradient id="paint3_linear_2_7" x1="2.80258e-06" y1="62.5" x2="328" y2="62.5" gradientUnits="userSpaceOnUse">
<stop stop-color="#F6E05E"/>
<stop offset="0.2" stop-color="#ED64A6"/>
<stop offset="0.4" stop-color="#9F7AEA"/>
<stop offset="0.6" stop-color="#4299E1"/>
<stop offset="0.8" stop-color="#4FD1C5"/>
</linearGradient>
</defs>
</svg>
